<svg id="Layer_1" data-name="Layer 1" xmlns="http://www.w3.org/2000/svg" xmlns:xlink="http://www.w3.org/1999/xlink" viewBox="0 0 751.68 473.76"><defs><style>.cls-1,.cls-19,.cls-3,.cls-4,.cls-6{fill:none;}.cls-2{fill:#d3d3d3;}.cls-3{stroke:#fff;stroke-width:4.32px;opacity:0;}.cls-4,.cls-6{stroke:#d3d3d3;}.cls-4{stroke-width:2.88px;}.cls-18,.cls-5{fill:#fff;}.cls-6{stroke-width:0.72px;}.cls-7{clip-path:url(#clip-path);}.cls-8{opacity:0.38;}.cls-12,.cls-8{font-size:9.36px;}.cls-8,.cls-9{font-family:Roboto-Regular, Roboto;}.cls-9{font-size:8.64px;}.cls-10{clip-path:url(#clip-path-2);}.cls-11{fill:#00c752;}.cls-12{font-family:Roboto-Medium, Roboto;font-weight:500;}.cls-13{clip-path:url(#clip-path-4);}.cls-14{clip-path:url(#clip-path-5);}.cls-15{clip-path:url(#clip-path-7);}.cls-16{clip-path:url(#clip-path-8);}.cls-17{clip-path:url(#clip-path-10);}.cls-18{opacity:0.01;}.cls-19{stroke:#000;stroke-linecap:square;stroke-width:0.94px;opacity:0.65;}.cls-20{clip-path:url(#clip-path-11);}.cls-21{clip-path:url(#clip-path-12);}.cls-22{clip-path:url(#clip-path-14);}.cls-23{clip-path:url(#clip-path-15);}.cls-24{clip-path:url(#clip-path-17);}.cls-25{clip-path:url(#clip-path-18);}.cls-26{clip-path:url(#clip-path-19);}.cls-27{clip-path:url(#clip-path-21);}.cls-28{clip-path:url(#clip-path-22);}.cls-29{clip-path:url(#clip-path-23);}.cls-30{clip-path:url(#clip-path-25);}.cls-31{clip-path:url(#clip-path-26);}.cls-32{clip-path:url(#clip-path-28);}.cls-33{clip-path:url(#clip-path-29);}.cls-34{clip-path:url(#clip-path-30);}.cls-35{clip-path:url(#clip-path-32);}.cls-36{clip-path:url(#clip-path-33);}.cls-37{clip-path:url(#clip-path-35);}.cls-38{clip-path:url(#clip-path-36);}.cls-39{clip-path:url(#clip-path-38);}.cls-40{clip-path:url(#clip-path-39);}.cls-41{clip-path:url(#clip-path-40);}.cls-42{clip-path:url(#clip-path-42);}.cls-43{clip-path:url(#clip-path-43);}.cls-44{clip-path:url(#clip-path-45);}.cls-45{clip-path:url(#clip-path-46);}.cls-46{clip-path:url(#clip-path-47);}.cls-47{clip-path:url(#clip-path-49);}.cls-48{clip-path:url(#clip-path-50);}.cls-49{clip-path:url(#clip-path-52);}.cls-50{clip-path:url(#clip-path-53);}.cls-51{clip-path:url(#clip-path-54);}.cls-52{clip-path:url(#clip-path-56);}</style><clipPath id="clip-path" transform="translate(-10 -10)"><rect class="cls-1" x="269.92" y="10.72" width="142.56" height="47.52"/></clipPath><clipPath id="clip-path-2" transform="translate(-10 -10)"><rect class="cls-1" x="272.08" y="16.48" width="10.08" height="10.08"/></clipPath><clipPath id="clip-path-4" transform="translate(-10 -10)"><rect class="cls-1" x="10.72" y="95.68" width="142.56" height="47.52"/></clipPath><clipPath id="clip-path-5" transform="translate(-10 -10)"><rect class="cls-1" x="12.88" y="101.44" width="10.08" height="10.08"/></clipPath><clipPath id="clip-path-7" transform="translate(-10 -10)"><rect class="cls-1" x="10.72" y="180.64" width="142.56" height="47.52"/></clipPath><clipPath id="clip-path-8" transform="translate(-10 -10)"><rect class="cls-1" x="12.88" y="186.4" width="10.08" height="10.08"/></clipPath><clipPath id="clip-path-10" transform="translate(-10 -10)"><rect class="cls-1" x="140.32" y="189.28" width="11.52" height="11.52"/></clipPath><clipPath id="clip-path-11" transform="translate(-10 -10)"><rect class="cls-1" x="267.04" y="95.68" width="142.56" height="47.52"/></clipPath><clipPath id="clip-path-12" transform="translate(-10 -10)"><rect class="cls-1" x="269.2" y="101.44" width="10.08" height="10.08"/></clipPath><clipPath id="clip-path-14" transform="translate(-10 -10)"><rect class="cls-1" x="267.04" y="180.64" width="142.56" height="47.52"/></clipPath><clipPath id="clip-path-15" transform="translate(-10 -10)"><rect class="cls-1" x="269.2" y="186.4" width="10.08" height="10.08"/></clipPath><clipPath id="clip-path-17" transform="translate(-10 -10)"><rect class="cls-1" x="396.64" y="189.28" width="11.52" height="11.52"/></clipPath><clipPath id="clip-path-18" transform="translate(-10 -10)"><rect class="cls-1" x="12.16" y="265.6" width="142.56" height="47.52"/></clipPath><clipPath id="clip-path-19" transform="translate(-10 -10)"><rect class="cls-1" x="14.32" y="271.36" width="10.08" height="10.08"/></clipPath><clipPath id="clip-path-21" transform="translate(-10 -10)"><rect class="cls-1" x="141.76" y="274.24" width="11.52" height="11.52"/></clipPath><clipPath id="clip-path-22" transform="translate(-10 -10)"><rect class="cls-1" x="445.6" y="180.64" width="142.56" height="47.52"/></clipPath><clipPath id="clip-path-23" transform="translate(-10 -10)"><rect class="cls-1" x="447.76" y="186.4" width="10.08" height="10.08"/></clipPath><clipPath id="clip-path-25" transform="translate(-10 -10)"><rect class="cls-1" x="268.48" y="265.6" width="142.56" height="47.52"/></clipPath><clipPath id="clip-path-26" transform="translate(-10 -10)"><rect class="cls-1" x="270.64" y="271.36" width="10.08" height="10.08"/></clipPath><clipPath id="clip-path-28" transform="translate(-10 -10)"><rect class="cls-1" x="398.08" y="274.24" width="11.52" height="11.52"/></clipPath><clipPath id="clip-path-29" transform="translate(-10 -10)"><rect class="cls-1" x="618.4" y="95.68" width="142.56" height="47.52"/></clipPath><clipPath id="clip-path-30" transform="translate(-10 -10)"><rect class="cls-1" x="620.56" y="101.44" width="10.08" height="10.08"/></clipPath><clipPath id="clip-path-32" transform="translate(-10 -10)"><rect class="cls-1" x="618.4" y="180.64" width="142.56" height="47.52"/></clipPath><clipPath id="clip-path-33" transform="translate(-10 -10)"><rect class="cls-1" x="620.56" y="186.4" width="10.08" height="10.08"/></clipPath><clipPath id="clip-path-35" transform="translate(-10 -10)"><rect class="cls-1" x="618.4" y="265.6" width="142.56" height="47.52"/></clipPath><clipPath id="clip-path-36" transform="translate(-10 -10)"><rect class="cls-1" x="620.56" y="271.36" width="10.08" height="10.08"/></clipPath><clipPath id="clip-path-38" transform="translate(-10 -10)"><rect class="cls-1" x="748" y="274.24" width="11.52" height="11.52"/></clipPath><clipPath id="clip-path-39" transform="translate(-10 -10)"><rect class="cls-1" x="12.16" y="350.56" width="142.56" height="47.52"/></clipPath><clipPath id="clip-path-40" transform="translate(-10 -10)"><rect class="cls-1" x="14.32" y="356.32" width="10.08" height="10.08"/></clipPath><clipPath id="clip-path-42" transform="translate(-10 -10)"><rect class="cls-1" x="12.16" y="435.52" width="142.56" height="47.52"/></clipPath><clipPath id="clip-path-43" transform="translate(-10 -10)"><rect class="cls-1" x="14.32" y="441.28" width="10.08" height="10.08"/></clipPath><clipPath id="clip-path-45" transform="translate(-10 -10)"><rect class="cls-1" x="141.76" y="444.16" width="11.52" height="11.52"/></clipPath><clipPath id="clip-path-46" transform="translate(-10 -10)"><rect class="cls-1" x="268.48" y="350.56" width="142.56" height="47.52"/></clipPath><clipPath id="clip-path-47" transform="translate(-10 -10)"><rect class="cls-1" x="270.64" y="356.32" width="10.08" height="10.08"/></clipPath><clipPath id="clip-path-49" transform="translate(-10 -10)"><rect class="cls-1" x="268.48" y="435.52" width="142.56" height="47.52"/></clipPath><clipPath id="clip-path-50" transform="translate(-10 -10)"><rect class="cls-1" x="270.64" y="441.28" width="10.08" height="10.08"/></clipPath><clipPath id="clip-path-52" transform="translate(-10 -10)"><rect class="cls-1" x="398.08" y="444.16" width="11.52" height="11.52"/></clipPath><clipPath id="clip-path-53" transform="translate(-10 -10)"><rect class="cls-1" x="441.28" y="265.6" width="142.56" height="47.52"/></clipPath><clipPath id="clip-path-54" transform="translate(-10 -10)"><rect class="cls-1" x="443.44" y="271.36" width="10.08" height="10.08"/></clipPath><clipPath id="clip-path-56" transform="translate(-10 -10)"><rect class="cls-1" x="570.88" y="274.24" width="11.52" height="11.52"/></clipPath></defs><title>dataflow</title><path class="cls-2" d="M336.88,59a4.78,4.78,0,0,0,.08.84,4.47,4.47,0,0,0,.25.81,4.15,4.15,0,0,0,.4.75,4.59,4.59,0,0,0,1.19,1.19,4.15,4.15,0,0,0,.75.4,4.47,4.47,0,0,0,.81.25,4.45,4.45,0,0,0,1.68,0,4.47,4.47,0,0,0,.81-.25,4.15,4.15,0,0,0,.75-.4,4.59,4.59,0,0,0,1.19-1.19,4.15,4.15,0,0,0,.4-.75,4.47,4.47,0,0,0,.25-.81,4.78,4.78,0,0,0,.08-.84Z" transform="translate(-10 -10)"/><path class="cls-3" d="M341.2,63.28C341.2,71.92,82,77,82,85.6V95" transform="translate(-10 -10)"/><path class="cls-4" d="M341.2,63.28C341.2,71.92,82,77,82,85.6V95" transform="translate(-10 -10)"/><path class="cls-2" d="M77.68,143.92a4.78,4.78,0,0,0,.08.84,4.47,4.47,0,0,0,.25.81,4.15,4.15,0,0,0,.4.75,4.59,4.59,0,0,0,1.19,1.19,4.15,4.15,0,0,0,.75.4,4.47,4.47,0,0,0,.81.25,4.45,4.45,0,0,0,1.68,0,4.47,4.47,0,0,0,.81-.25,4.15,4.15,0,0,0,.75-.4,4.59,4.59,0,0,0,1.19-1.19,4.15,4.15,0,0,0,.4-.75,4.47,4.47,0,0,0,.25-.81,4.78,4.78,0,0,0,.08-.84Z" transform="translate(-10 -10)"/><polyline class="cls-3" points="72 138.24 72 160.56 72 161.28 72 169.92"/><polyline class="cls-4" points="72 138.24 72 160.56 72 161.28 72 169.92"/><path class="cls-2" d="M336.88,59a4.78,4.78,0,0,0,.08.84,4.47,4.47,0,0,0,.25.81,4.15,4.15,0,0,0,.4.75,4.59,4.59,0,0,0,1.19,1.19,4.15,4.15,0,0,0,.75.4,4.47,4.47,0,0,0,.81.25,4.45,4.45,0,0,0,1.68,0,4.47,4.47,0,0,0,.81-.25,4.15,4.15,0,0,0,.75-.4,4.59,4.59,0,0,0,1.19-1.19,4.15,4.15,0,0,0,.4-.75,4.47,4.47,0,0,0,.25-.81,4.78,4.78,0,0,0,.08-.84Z" transform="translate(-10 -10)"/><path class="cls-3" d="M341.2,63.28c0,8.64-2.88,13.68-2.88,22.32V95" transform="translate(-10 -10)"/><path class="cls-4" d="M341.2,63.28c0,8.64-2.88,13.68-2.88,22.32V95" transform="translate(-10 -10)"/><path class="cls-2" d="M334,143.92a4.78,4.78,0,0,0,.08.84,4.47,4.47,0,0,0,.25.81,4.15,4.15,0,0,0,.4.75,4.59,4.59,0,0,0,1.19,1.19,4.15,4.15,0,0,0,.75.4,4.47,4.47,0,0,0,.81.25,4.45,4.45,0,0,0,1.68,0,4.47,4.47,0,0,0,.81-.25,4.15,4.15,0,0,0,.75-.4,4.59,4.59,0,0,0,1.19-1.19,4.15,4.15,0,0,0,.4-.75,4.47,4.47,0,0,0,.25-.81,4.78,4.78,0,0,0,.08-.84Z" transform="translate(-10 -10)"/><polyline class="cls-3" points="328.32 138.24 328.32 160.56 328.32 161.28 328.32 169.92"/><polyline class="cls-4" points="328.32 138.24 328.32 160.56 328.32 161.28 328.32 169.92"/><path class="cls-2" d="M77.68,228.88a4.78,4.78,0,0,0,.08.84,4.47,4.47,0,0,0,.25.81,4.15,4.15,0,0,0,.4.75,4.59,4.59,0,0,0,1.19,1.19,4.15,4.15,0,0,0,.75.4,4.47,4.47,0,0,0,.81.25,4.45,4.45,0,0,0,1.68,0,4.47,4.47,0,0,0,.81-.25,4.15,4.15,0,0,0,.75-.4,4.59,4.59,0,0,0,1.19-1.19,4.15,4.15,0,0,0,.4-.75,4.47,4.47,0,0,0,.25-.81,4.78,4.78,0,0,0,.08-.84Z" transform="translate(-10 -10)"/><path class="cls-3" d="M82,233.2q0,8.64-11.28,15.84T59.44,264.88" transform="translate(-10 -10)"/><path class="cls-4" d="M82,233.2q0,8.64-11.28,15.84T59.44,264.88" transform="translate(-10 -10)"/><path class="cls-2" d="M310,228.88a4.78,4.78,0,0,0,.08.84,4.47,4.47,0,0,0,.25.81,4.15,4.15,0,0,0,.4.75,4.59,4.59,0,0,0,1.19,1.19,4.15,4.15,0,0,0,.75.4,4.47,4.47,0,0,0,.81.25,4.45,4.45,0,0,0,1.68,0,4.47,4.47,0,0,0,.81-.25,4.15,4.15,0,0,0,.75-.4,4.59,4.59,0,0,0,1.19-1.19,4.15,4.15,0,0,0,.4-.75,4.47,4.47,0,0,0,.25-.81,4.78,4.78,0,0,0,.08-.84Z" transform="translate(-10 -10)"/><path class="cls-3" d="M314.32,233.2q0,8.64-103.44,15.84T107.44,264.88" transform="translate(-10 -10)"/><path class="cls-4" d="M314.32,233.2q0,8.64-103.44,15.84T107.44,264.88" transform="translate(-10 -10)"/><path class="cls-2" d="M336.88,59a4.78,4.78,0,0,0,.08.84,4.47,4.47,0,0,0,.25.81,4.15,4.15,0,0,0,.4.75,4.59,4.59,0,0,0,1.19,1.19,4.15,4.15,0,0,0,.75.4,4.47,4.47,0,0,0,.81.25,4.45,4.45,0,0,0,1.68,0,4.47,4.47,0,0,0,.81-.25,4.15,4.15,0,0,0,.75-.4,4.59,4.59,0,0,0,1.19-1.19,4.15,4.15,0,0,0,.4-.75,4.47,4.47,0,0,0,.25-.81,4.78,4.78,0,0,0,.08-.84Z" transform="translate(-10 -10)"/><path class="cls-3" d="M341.2,63.28c0,8.64,175.68,13.68,175.68,22.32v94.32" transform="translate(-10 -10)"/><path class="cls-4" d="M341.2,63.28c0,8.64,175.68,13.68,175.68,22.32v94.32" transform="translate(-10 -10)"/><path class="cls-2" d="M310,228.88a4.78,4.78,0,0,0,.08.84,4.47,4.47,0,0,0,.25.81,4.15,4.15,0,0,0,.4.75,4.59,4.59,0,0,0,1.19,1.19,4.15,4.15,0,0,0,.75.4,4.47,4.47,0,0,0,.81.25,4.45,4.45,0,0,0,1.68,0,4.47,4.47,0,0,0,.81-.25,4.15,4.15,0,0,0,.75-.4,4.59,4.59,0,0,0,1.19-1.19,4.15,4.15,0,0,0,.4-.75,4.47,4.47,0,0,0,.25-.81,4.78,4.78,0,0,0,.08-.84Z" transform="translate(-10 -10)"/><path class="cls-3" d="M314.32,233.2q0,8.64.72,15.84t.72,15.84" transform="translate(-10 -10)"/><path class="cls-4" d="M314.32,233.2q0,8.64.72,15.84t.72,15.84" transform="translate(-10 -10)"/><path class="cls-2" d="M512.56,228.88a4.78,4.78,0,0,0,.08.84,4.47,4.47,0,0,0,.25.81,4.15,4.15,0,0,0,.4.75,4.59,4.59,0,0,0,1.19,1.19,4.15,4.15,0,0,0,.75.4,4.47,4.47,0,0,0,.81.25,4.45,4.45,0,0,0,1.68,0,4.47,4.47,0,0,0,.81-.25,4.15,4.15,0,0,0,.75-.4,4.59,4.59,0,0,0,1.19-1.19,4.15,4.15,0,0,0,.4-.75,4.47,4.47,0,0,0,.25-.81,4.78,4.78,0,0,0,.08-.84Z" transform="translate(-10 -10)"/><path class="cls-3" d="M516.88,233.2q0,8.64-76.56,15.84t-76.56,15.84" transform="translate(-10 -10)"/><path class="cls-4" d="M516.88,233.2q0,8.64-76.56,15.84t-76.56,15.84" transform="translate(-10 -10)"/><path class="cls-2" d="M336.88,59a4.78,4.78,0,0,0,.08.84,4.47,4.47,0,0,0,.25.81,4.15,4.15,0,0,0,.4.75,4.59,4.59,0,0,0,1.19,1.19,4.15,4.15,0,0,0,.75.4,4.47,4.47,0,0,0,.81.25,4.45,4.45,0,0,0,1.68,0,4.47,4.47,0,0,0,.81-.25,4.15,4.15,0,0,0,.75-.4,4.59,4.59,0,0,0,1.19-1.19,4.15,4.15,0,0,0,.4-.75,4.47,4.47,0,0,0,.25-.81,4.78,4.78,0,0,0,.08-.84Z" transform="translate(-10 -10)"/><path class="cls-3" d="M341.2,63.28c0,8.64,348.48,13.68,348.48,22.32V95" transform="translate(-10 -10)"/><path class="cls-4" d="M341.2,63.28c0,8.64,348.48,13.68,348.48,22.32V95" transform="translate(-10 -10)"/><path class="cls-2" d="M685.36,143.92a4.78,4.78,0,0,0,.08.84,4.47,4.47,0,0,0,.25.81,4.15,4.15,0,0,0,.4.75,4.59,4.59,0,0,0,1.19,1.19,4.15,4.15,0,0,0,.75.4,4.47,4.47,0,0,0,.81.25,4.45,4.45,0,0,0,1.68,0,4.46,4.46,0,0,0,1.56-.65,4.59,4.59,0,0,0,1.19-1.19,4.15,4.15,0,0,0,.4-.75,4.47,4.47,0,0,0,.25-.81,4.78,4.78,0,0,0,.08-.84Z" transform="translate(-10 -10)"/><polyline class="cls-3" points="679.68 138.24 679.68 160.56 679.68 161.28 679.68 169.92"/><polyline class="cls-4" points="679.68 138.24 679.68 160.56 679.68 161.28 679.68 169.92"/><path class="cls-2" d="M685.36,228.88a4.78,4.78,0,0,0,.08.84,4.47,4.47,0,0,0,.25.81,4.15,4.15,0,0,0,.4.75,4.59,4.59,0,0,0,1.19,1.19,4.15,4.15,0,0,0,.75.4,4.47,4.47,0,0,0,.81.25,4.45,4.45,0,0,0,1.68,0,4.46,4.46,0,0,0,1.56-.65,4.59,4.59,0,0,0,1.19-1.19,4.15,4.15,0,0,0,.4-.75,4.47,4.47,0,0,0,.25-.81,4.78,4.78,0,0,0,.08-.84Z" transform="translate(-10 -10)"/><polyline class="cls-3" points="679.68 223.2 679.68 245.52 679.68 246.24 679.68 254.88"/><polyline class="cls-4" points="679.68 223.2 679.68 245.52 679.68 246.24 679.68 254.88"/><path class="cls-2" d="M79.12,313.84a4.78,4.78,0,0,0,.08.84,4.47,4.47,0,0,0,.25.81,4.15,4.15,0,0,0,.4.75A4.59,4.59,0,0,0,81,317.43a4.15,4.15,0,0,0,.75.4,4.47,4.47,0,0,0,.81.25,4.45,4.45,0,0,0,1.68,0,4.47,4.47,0,0,0,.81-.25,4.15,4.15,0,0,0,.75-.4A4.59,4.59,0,0,0,87,316.24a4.15,4.15,0,0,0,.4-.75,4.47,4.47,0,0,0,.25-.81,4.78,4.78,0,0,0,.08-.84Z" transform="translate(-10 -10)"/><polyline class="cls-3" points="73.44 308.16 73.44 330.48 73.44 331.2 73.44 339.84"/><polyline class="cls-4" points="73.44 308.16 73.44 330.48 73.44 331.2 73.44 339.84"/><path class="cls-2" d="M79.12,398.8a4.78,4.78,0,0,0,.08.84,4.47,4.47,0,0,0,.25.81,4.15,4.15,0,0,0,.4.75A4.59,4.59,0,0,0,81,402.39a4.15,4.15,0,0,0,.75.4,4.47,4.47,0,0,0,.81.25,4.45,4.45,0,0,0,1.68,0,4.47,4.47,0,0,0,.81-.25,4.15,4.15,0,0,0,.75-.4A4.59,4.59,0,0,0,87,401.2a4.15,4.15,0,0,0,.4-.75,4.47,4.47,0,0,0,.25-.81,4.78,4.78,0,0,0,.08-.84Z" transform="translate(-10 -10)"/><polyline class="cls-3" points="73.44 393.12 73.44 415.44 73.44 416.16 73.44 424.8"/><polyline class="cls-4" points="73.44 393.12 73.44 415.44 73.44 416.16 73.44 424.8"/><path class="cls-2" d="M335.44,313.84a4.78,4.78,0,0,0,.08.84,4.47,4.47,0,0,0,.25.81,4.15,4.15,0,0,0,.4.75,4.59,4.59,0,0,0,1.19,1.19,4.15,4.15,0,0,0,.75.4,4.47,4.47,0,0,0,.81.25,4.45,4.45,0,0,0,1.68,0,4.47,4.47,0,0,0,.81-.25,4.15,4.15,0,0,0,.75-.4,4.59,4.59,0,0,0,1.19-1.19,4.15,4.15,0,0,0,.4-.75,4.47,4.47,0,0,0,.25-.81,4.78,4.78,0,0,0,.08-.84Z" transform="translate(-10 -10)"/><polyline class="cls-3" points="329.76 308.16 329.76 330.48 329.76 331.2 329.76 339.84"/><polyline class="cls-4" points="329.76 308.16 329.76 330.48 329.76 331.2 329.76 339.84"/><path class="cls-2" d="M335.44,398.8a4.78,4.78,0,0,0,.08.84,4.47,4.47,0,0,0,.25.81,4.15,4.15,0,0,0,.4.75,4.59,4.59,0,0,0,1.19,1.19,4.15,4.15,0,0,0,.75.4,4.47,4.47,0,0,0,.81.25,4.45,4.45,0,0,0,1.68,0,4.47,4.47,0,0,0,.81-.25,4.15,4.15,0,0,0,.75-.4,4.59,4.59,0,0,0,1.19-1.19,4.15,4.15,0,0,0,.4-.75,4.47,4.47,0,0,0,.25-.81,4.78,4.78,0,0,0,.08-.84Z" transform="translate(-10 -10)"/><polyline class="cls-3" points="329.76 393.12 329.76 415.44 329.76 416.16 329.76 424.8"/><polyline class="cls-4" points="329.76 393.12 329.76 415.44 329.76 416.16 329.76 424.8"/><path class="cls-2" d="M310,228.88a4.78,4.78,0,0,0,.08.84,4.47,4.47,0,0,0,.25.81,4.15,4.15,0,0,0,.4.75,4.59,4.59,0,0,0,1.19,1.19,4.15,4.15,0,0,0,.75.4,4.47,4.47,0,0,0,.81.25,4.45,4.45,0,0,0,1.68,0,4.47,4.47,0,0,0,.81-.25,4.15,4.15,0,0,0,.75-.4,4.59,4.59,0,0,0,1.19-1.19,4.15,4.15,0,0,0,.4-.75,4.47,4.47,0,0,0,.25-.81,4.78,4.78,0,0,0,.08-.84Z" transform="translate(-10 -10)"/><path class="cls-3" d="M314.32,233.2q0,8.64,87.12,15.84t87.12,15.84" transform="translate(-10 -10)"/><path class="cls-4" d="M314.32,233.2q0,8.64,87.12,15.84t87.12,15.84" transform="translate(-10 -10)"/><path class="cls-2" d="M358,228.88a4.78,4.78,0,0,0,.08.84,4.47,4.47,0,0,0,.25.81,4.15,4.15,0,0,0,.4.75,4.59,4.59,0,0,0,1.19,1.19,4.15,4.15,0,0,0,.75.4,4.47,4.47,0,0,0,.81.25,4.45,4.45,0,0,0,1.68,0,4.47,4.47,0,0,0,.81-.25,4.15,4.15,0,0,0,.75-.4,4.59,4.59,0,0,0,1.19-1.19,4.15,4.15,0,0,0,.4-.75,4.47,4.47,0,0,0,.25-.81,4.78,4.78,0,0,0,.08-.84Z" transform="translate(-10 -10)"/><path class="cls-3" d="M362.32,233.2q0,8.64,87.12,15.84t87.12,15.84" transform="translate(-10 -10)"/><path class="cls-4" d="M362.32,233.2q0,8.64,87.12,15.84t87.12,15.84" transform="translate(-10 -10)"/><rect class="cls-5" x="259.2" width="144" height="48.96"/><rect class="cls-6" x="259.56" y="0.36" width="143.28" height="48.24"/><g class="cls-7"><rect class="cls-5" x="259.92" y="0.72" width="142.56" height="2.88"/><text class="cls-8" transform="translate(308.23 29.52)">Succeeded</text><text class="cls-9" transform="translate(318.5 41.04)">28 sec</text></g><g class="cls-10"><path class="cls-11" d="M276,24h0l5.29-5.29a5,5,0,1,1-1-1.14L276,21.88l-1.44-1.44-1.08,1.08L276,24Z" transform="translate(-10 -10)"/></g><g class="cls-7"><text class="cls-12" transform="translate(321.91 18)">r</text><text class="cls-12" transform="translate(325.11 18)">ead</text></g><rect class="cls-5" y="84.96" width="144" height="48.96"/><rect class="cls-6" x="0.36" y="85.32" width="143.28" height="48.24"/><g class="cls-13"><rect class="cls-5" x="0.72" y="85.68" width="142.56" height="2.88"/><text class="cls-8" transform="translate(49.03 114.48)">Succeeded</text><text class="cls-9" transform="translate(61.73 126)">0 sec</text></g><g class="cls-14"><path class="cls-11" d="M16.84,109h0l5.29-5.29a5,5,0,1,1-1-1.14l-4.27,4.27L15.4,105.4l-1.08,1.08L16.84,109Z" transform="translate(-10 -10)"/></g><g class="cls-13"><text class="cls-12" transform="translate(44.92 102.96)">tr</text><path d="M64.71,113a1.75,1.75,0,0,1-.13-.46,1.71,1.71,0,0,1-1.3.55,1.75,1.75,0,0,1-1.21-.42,1.49,1.49,0,0,1,.12-2.27,2.85,2.85,0,0,1,1.68-.42h.68v-.33a.88.88,0,0,0-.22-.61.86.86,0,0,0-.65-.23.94.94,0,0,0-.62.19.58.58,0,0,0-.25.48H61.7a1.24,1.24,0,0,1,.27-.76,1.84,1.84,0,0,1,.74-.56,2.63,2.63,0,0,1,1-.2,2.1,2.1,0,0,1,1.39.44,1.57,1.57,0,0,1,.53,1.23v2.23a2.59,2.59,0,0,0,.18,1.06V113Zm-1.22-.8a1.22,1.22,0,0,0,.62-.16,1.14,1.14,0,0,0,.44-.43v-.93H64a1.68,1.68,0,0,0-.93.21.7.7,0,0,0-.31.61.66.66,0,0,0,.21.51A.8.8,0,0,0,63.49,112.16Zm3.33-5.43a.57.57,0,0,1,.63-.59.58.58,0,0,1,.46.17.6.6,0,0,1,0,.84.62.62,0,0,1-.46.17.64.64,0,0,1-.47-.17A.61.61,0,0,1,66.82,106.73ZM68,113H66.89V108H68ZM70.24,108l0,.57a1.77,1.77,0,0,1,1.44-.67c1,0,1.56.59,1.57,1.77V113H72.17v-3.2a1,1,0,0,0-.2-.7.85.85,0,0,0-.66-.23,1.09,1.09,0,0,0-1,.61V113H69.19V108Zm4.18-1.29a.57.57,0,0,1,.16-.42.58.58,0,0,1,.46-.17.59.59,0,0,1,.47.17.63.63,0,0,1,0,.84.63.63,0,0,1-.47.17.62.62,0,0,1-.46-.17A.57.57,0,0,1,74.42,106.73ZM75.6,113H74.49V108H75.6ZM77.84,108l0,.57a1.75,1.75,0,0,1,1.44-.67c1,0,1.55.59,1.57,1.77V113H79.77v-3.2a1,1,0,0,0-.2-.7.87.87,0,0,0-.67-.23,1.08,1.08,0,0,0-1,.61V113H76.79V108Zm4,2.43a2.9,2.9,0,0,1,.54-1.84,1.74,1.74,0,0,1,1.44-.69,1.65,1.65,0,0,1,1.33.59l.05-.49h1v4.79a2,2,0,0,1-.61,1.53,2.28,2.28,0,0,1-1.63.57,2.63,2.63,0,0,1-1.06-.23,1.89,1.89,0,0,1-.79-.59l.52-.67a1.57,1.57,0,0,0,1.26.61,1.25,1.25,0,0,0,.88-.3,1.16,1.16,0,0,0,.32-.88v-.33a1.66,1.66,0,0,1-1.28.53,1.74,1.74,0,0,1-1.42-.69A3,3,0,0,1,81.82,110.45Zm1.1.1a2,2,0,0,0,.31,1.17,1,1,0,0,0,.84.43,1.09,1.09,0,0,0,1-.58V109.4a1.05,1.05,0,0,0-1-.57,1,1,0,0,0-.85.44A2.16,2.16,0,0,0,82.92,110.55Zm6.55,0h-2.4v-.9h2.4ZM90.68,113v-4.12h-.75V108h.75v-.34a2.08,2.08,0,0,1,.25-1,1.51,1.51,0,0,1,.69-.63,2.44,2.44,0,0,1,1.06-.21,3.19,3.19,0,0,1,.7.08,6.77,6.77,0,0,1,.7.2l-.17.92a3.42,3.42,0,0,0-1.15-.22A1,1,0,0,0,92,107a.9.9,0,0,0-.23.66V108h1v.82h-1V113Zm3.93,0H93.49V108h1.12ZM97,113H95.91v-7H97Zm2.6-6.15V108h.87v.82h-.87v2.76a.65.65,0,0,0,.11.41.55.55,0,0,0,.4.12,1.72,1.72,0,0,0,.39,0V113a2.73,2.73,0,0,1-.73.1c-.86,0-1.28-.47-1.28-1.41v-2.8h-.82V108h.82v-1.21Zm3.9,6.24a2.28,2.28,0,0,1-1.71-.66,2.42,2.42,0,0,1-.66-1.77v-.14a2.92,2.92,0,0,1,.29-1.32,2.14,2.14,0,0,1,2-1.24,2,2,0,0,1,1.56.65,2.71,2.71,0,0,1,.55,1.82v.45h-3.23a1.47,1.47,0,0,0,.41,1,1.21,1.21,0,0,0,.9.35,1.49,1.49,0,0,0,1.24-.61l.6.57a2,2,0,0,1-.79.69A2.51,2.51,0,0,1,103.52,113.05Zm-.14-4.24a.93.93,0,0,0-.73.32,1.68,1.68,0,0,0-.36.9h2.11v-.09a1.34,1.34,0,0,0-.29-.84A1,1,0,0,0,103.38,108.81ZM109,109a3.27,3.27,0,0,0-.45,0,1,1,0,0,0-1,.59V113h-1.11V108h1.06l0,.55a1.26,1.26,0,0,1,1.11-.65,1.15,1.15,0,0,1,.4.07Z" transform="translate(-10 -10)"/></g><rect class="cls-5" y="169.92" width="144" height="48.96"/><rect class="cls-6" x="0.36" y="170.28" width="143.28" height="48.24"/><g class="cls-15"><rect class="cls-5" x="0.72" y="170.64" width="142.56" height="2.88"/><text class="cls-8" transform="translate(49.03 199.44)">Succeeded</text><text class="cls-9" transform="translate(59.3 210.96)">10 sec</text></g><g class="cls-16"><path class="cls-11" d="M16.84,194h0l5.29-5.29a5,5,0,1,1-1-1.14l-4.27,4.27-1.44-1.44-1.08,1.08L16.84,194Z" transform="translate(-10 -10)"/></g><g class="cls-15"><text class="cls-12" transform="translate(40.25 187.92)">tr</text><path d="M60,197.92a1.75,1.75,0,0,1-.13-.46,1.7,1.7,0,0,1-1.29.55,1.76,1.76,0,0,1-1.22-.42,1.39,1.39,0,0,1-.47-1.05,1.42,1.42,0,0,1,.59-1.22,2.85,2.85,0,0,1,1.68-.42h.68v-.33a.83.83,0,0,0-.22-.61.86.86,0,0,0-.65-.23,1,1,0,0,0-.62.19.6.6,0,0,0-.24.48H57a1.24,1.24,0,0,1,.27-.76,1.84,1.84,0,0,1,.74-.56,2.63,2.63,0,0,1,1-.2,2.1,2.1,0,0,1,1.39.44,1.57,1.57,0,0,1,.53,1.23v2.23a2.42,2.42,0,0,0,.19,1.06v.08Zm-1.22-.8a1.22,1.22,0,0,0,.62-.16,1.14,1.14,0,0,0,.44-.43v-.93h-.6a1.68,1.68,0,0,0-.93.21.7.7,0,0,0-.31.61.66.66,0,0,0,.21.51A.8.8,0,0,0,58.82,197.12Zm3.33-5.43a.58.58,0,0,1,.63-.59.61.61,0,0,1,.47.17.63.63,0,0,1,0,.84.64.64,0,0,1-.47.17.6.6,0,0,1-.46-.17A.57.57,0,0,1,62.15,191.69Zm1.18,6.23H62.22V193h1.11ZM65.57,193l0,.57a1.77,1.77,0,0,1,1.44-.67c1,0,1.56.59,1.58,1.77v3.27H67.51v-3.2a1,1,0,0,0-.21-.7.85.85,0,0,0-.66-.23,1.08,1.08,0,0,0-1,.61v3.52H64.53V193Zm4.18-1.29a.57.57,0,0,1,.16-.42.59.59,0,0,1,.47-.17.58.58,0,0,1,.46.17.6.6,0,0,1,0,.84.62.62,0,0,1-.46.17.63.63,0,0,1-.47-.17A.57.57,0,0,1,69.75,191.69Zm1.18,6.23H69.82V193h1.11ZM73.17,193l0,.57a1.77,1.77,0,0,1,1.44-.67c1,0,1.55.59,1.57,1.77v3.27H75.1v-3.2a1,1,0,0,0-.2-.7.87.87,0,0,0-.67-.23,1.09,1.09,0,0,0-1,.61v3.52H72.12V193Zm4,2.43a2.9,2.9,0,0,1,.54-1.84,1.74,1.74,0,0,1,1.44-.69,1.65,1.65,0,0,1,1.33.59l.05-.49h1v4.79a2,2,0,0,1-.61,1.53,2.28,2.28,0,0,1-1.63.57,2.63,2.63,0,0,1-1.06-.23,1.89,1.89,0,0,1-.79-.59l.52-.67a1.6,1.6,0,0,0,1.27.61,1.23,1.23,0,0,0,.87-.3,1.16,1.16,0,0,0,.32-.88v-.33a1.66,1.66,0,0,1-1.28.53,1.74,1.74,0,0,1-1.42-.69A3,3,0,0,1,77.15,195.41Zm1.1.1a2,2,0,0,0,.31,1.17,1,1,0,0,0,.84.43,1.09,1.09,0,0,0,1-.58v-2.17a1.05,1.05,0,0,0-1-.57,1,1,0,0,0-.85.44A2.24,2.24,0,0,0,78.25,195.51Zm6.55,0H82.4v-.9h2.4Zm3.69,1a.52.52,0,0,0-.24-.46,2.9,2.9,0,0,0-.81-.27,4.26,4.26,0,0,1-1-.3,1.27,1.27,0,0,1-.83-1.17,1.33,1.33,0,0,1,.54-1.07,2.16,2.16,0,0,1,1.37-.43,2.22,2.22,0,0,1,1.43.44,1.38,1.38,0,0,1,.55,1.14H88.44a.68.68,0,0,0-.24-.53.92.92,0,0,0-.63-.21,1,1,0,0,0-.6.16.56.56,0,0,0-.23.46.43.43,0,0,0,.22.39,2.81,2.81,0,0,0,.87.29,4.47,4.47,0,0,1,1,.34,1.46,1.46,0,0,1,.55.48,1.23,1.23,0,0,1,.18.68A1.29,1.29,0,0,1,89,197.6a2.4,2.4,0,0,1-1.45.41,2.51,2.51,0,0,1-1.08-.22,1.77,1.77,0,0,1-.74-.6,1.42,1.42,0,0,1-.27-.83h1.08a.82.82,0,0,0,.3.61,1.15,1.15,0,0,0,.73.21,1.11,1.11,0,0,0,.66-.17A.49.49,0,0,0,88.49,196.58Zm3.16-3.07a1.73,1.73,0,0,1,1.37-.63c1.06,0,1.59.61,1.61,1.81v3.23H93.52v-3.19a1,1,0,0,0-.23-.72.85.85,0,0,0-.65-.22,1.06,1.06,0,0,0-1,.6v3.53H90.54v-7h1.11Zm7.09,3.93a1.72,1.72,0,0,1-1.39.57,1.53,1.53,0,0,1-1.21-.47,2,2,0,0,1-.42-1.36V193h1.11v3.19c0,.62.26.94.78.94a1.12,1.12,0,0,0,1.1-.58V193h1.11v4.94h-1Zm2.6.48V193.8h-.75V193h.75v-.46a1.68,1.68,0,0,1,.46-1.27,1.74,1.74,0,0,1,1.28-.45,2.38,2.38,0,0,1,.62.09l0,.86a2.58,2.58,0,0,0-.42,0,.72.72,0,0,0-.8.82V193h1.7v-.45a1.63,1.63,0,0,1,.5-1.28,2,2,0,0,1,1.38-.45,18.29,18.29,0,0,1,2,.22v6.9H107v-6.14a6.43,6.43,0,0,0-.8-.06q-.9,0-.9.84V193h1v.82h-1v4.12h-1.11V193.8h-1.7v4.12Zm10.14.09a2.32,2.32,0,0,1-1.72-.66,2.46,2.46,0,0,1-.65-1.77v-.14a2.91,2.91,0,0,1,.28-1.32,2.11,2.11,0,0,1,.81-.91,2.06,2.06,0,0,1,1.15-.33,2,2,0,0,1,1.56.65,2.71,2.71,0,0,1,.55,1.82v.45h-3.23a1.47,1.47,0,0,0,.41,1,1.21,1.21,0,0,0,.9.35,1.49,1.49,0,0,0,1.24-.61l.6.57a2.12,2.12,0,0,1-.79.69A2.51,2.51,0,0,1,111.48,198Zm-.14-4.24a.93.93,0,0,0-.73.32,1.68,1.68,0,0,0-.36.9h2.11v-.09a1.34,1.34,0,0,0-.29-.84A1,1,0,0,0,111.34,193.77Z" transform="translate(-10 -10)"/></g><g class="cls-17"><rect class="cls-18" x="130.32" y="179.28" width="9.36" height="9.36"/><line x1="135" y1="182.5" x2="137.2" y2="180.16"/><line class="cls-19" x1="135" y1="182.5" x2="137.2" y2="180.16"/><line x1="132.8" y1="180.16" x2="135" y2="182.5"/><line class="cls-19" x1="132.8" y1="180.16" x2="135" y2="182.5"/></g><rect class="cls-5" x="256.32" y="84.96" width="144" height="48.96"/><rect class="cls-6" x="256.68" y="85.32" width="143.28" height="48.24"/><g class="cls-20"><rect class="cls-5" x="257.04" y="85.68" width="142.56" height="2.88"/><text class="cls-8" transform="translate(305.35 114.48)">Succeeded</text><text class="cls-9" transform="translate(318.05 126)">0 sec</text></g><g class="cls-21"><path class="cls-11" d="M273.16,109h0l5.29-5.29a5,5,0,1,1-1-1.14l-4.27,4.27-1.44-1.44-1.08,1.08,2.52,2.52Z" transform="translate(-10 -10)"/></g><g class="cls-20"><path d="M313.5,113a1.83,1.83,0,0,1-.12-.46,1.74,1.74,0,0,1-1.3.55,1.77,1.77,0,0,1-1.22-.42,1.39,1.39,0,0,1-.47-1,1.42,1.42,0,0,1,.59-1.22,2.85,2.85,0,0,1,1.68-.42h.68v-.33a.87.87,0,0,0-.21-.61.9.9,0,0,0-.66-.23,1,1,0,0,0-.62.19.6.6,0,0,0-.24.48H310.5a1.24,1.24,0,0,1,.27-.76,1.81,1.81,0,0,1,.73-.56,2.68,2.68,0,0,1,1-.2,2.08,2.08,0,0,1,1.38.44,1.54,1.54,0,0,1,.53,1.23v2.23a2.42,2.42,0,0,0,.19,1.06V113Zm-1.22-.8a1.22,1.22,0,0,0,.62-.16,1.07,1.07,0,0,0,.44-.43v-.93h-.6a1.68,1.68,0,0,0-.93.21.73.73,0,0,0-.31.61.64.64,0,0,0,.22.51A.79.79,0,0,0,312.28,112.16Zm4.36-4.14,0,.57a1.75,1.75,0,0,1,1.44-.67c1,0,1.55.59,1.57,1.77V113h-1.11v-3.2a1,1,0,0,0-.21-.7.84.84,0,0,0-.66-.23,1.08,1.08,0,0,0-1,.61V113H315.6V108Zm7.13,4.94a1.83,1.83,0,0,1-.12-.46,1.74,1.74,0,0,1-1.3.55,1.77,1.77,0,0,1-1.22-.42,1.39,1.39,0,0,1-.47-1,1.42,1.42,0,0,1,.59-1.22,2.85,2.85,0,0,1,1.68-.42h.68v-.33a.87.87,0,0,0-.21-.61.9.9,0,0,0-.66-.23,1,1,0,0,0-.62.19.6.6,0,0,0-.24.48h-1.11a1.24,1.24,0,0,1,.27-.76,1.81,1.81,0,0,1,.73-.56,2.64,2.64,0,0,1,1-.2,2.08,2.08,0,0,1,1.38.44,1.57,1.57,0,0,1,.53,1.23v2.23a2.42,2.42,0,0,0,.19,1.06V113Zm-1.22-.8a1.22,1.22,0,0,0,.62-.16,1.07,1.07,0,0,0,.44-.43v-.93H323a1.68,1.68,0,0,0-.93.21.73.73,0,0,0-.31.61.64.64,0,0,0,.22.51A.79.79,0,0,0,322.55,112.16Zm4.52.8H326v-7h1.12Zm2.93-1.59,1-3.35h1.18l-2,5.69a1.61,1.61,0,0,1-1.54,1.25,2.13,2.13,0,0,1-.53-.08V114h.21a1.08,1.08,0,0,0,.63-.15,1.15,1.15,0,0,0,.34-.52l.16-.42L327.76,108H329Zm5.6.25a.52.52,0,0,0-.24-.46,2.9,2.9,0,0,0-.81-.27,4.26,4.26,0,0,1-.95-.3,1.27,1.27,0,0,1-.83-1.17,1.33,1.33,0,0,1,.54-1.07,2.16,2.16,0,0,1,1.37-.43,2.22,2.22,0,0,1,1.43.44,1.38,1.38,0,0,1,.55,1.14h-1.11a.68.68,0,0,0-.24-.53.92.92,0,0,0-.63-.21,1,1,0,0,0-.6.16.56.56,0,0,0-.23.46.43.43,0,0,0,.22.39,2.81,2.81,0,0,0,.87.29,4.47,4.47,0,0,1,1,.34,1.46,1.46,0,0,1,.55.48,1.23,1.23,0,0,1,.18.68,1.29,1.29,0,0,1-.55,1.08,2.4,2.4,0,0,1-1.45.41,2.51,2.51,0,0,1-1.08-.22,1.77,1.77,0,0,1-.74-.6,1.42,1.42,0,0,1-.27-.83h1.08a.82.82,0,0,0,.3.61,1.15,1.15,0,0,0,.73.21,1.11,1.11,0,0,0,.66-.17A.49.49,0,0,0,335.6,111.62Zm2.06-4.89a.58.58,0,0,1,.63-.59.61.61,0,0,1,.47.17.63.63,0,0,1,0,.84.64.64,0,0,1-.47.17.6.6,0,0,1-.46-.17A.57.57,0,0,1,337.66,106.73Zm1.18,6.23h-1.11V108h1.11Zm4-1.34a.52.52,0,0,0-.24-.46,2.68,2.68,0,0,0-.81-.27,4.26,4.26,0,0,1-.95-.3,1.27,1.27,0,0,1-.83-1.17,1.33,1.33,0,0,1,.54-1.07,2.18,2.18,0,0,1,1.37-.43,2.22,2.22,0,0,1,1.43.44,1.38,1.38,0,0,1,.55,1.14h-1.11a.68.68,0,0,0-.24-.53.92.92,0,0,0-.63-.21,1,1,0,0,0-.6.16.56.56,0,0,0-.23.46.43.43,0,0,0,.22.39,2.81,2.81,0,0,0,.87.29,4.47,4.47,0,0,1,1,.34,1.58,1.58,0,0,1,.56.48,1.23,1.23,0,0,1,.18.68,1.3,1.3,0,0,1-.56,1.08,2.4,2.4,0,0,1-1.45.41,2.51,2.51,0,0,1-1.08-.22,1.77,1.77,0,0,1-.74-.6,1.41,1.41,0,0,1-.26-.83h1.07a.82.82,0,0,0,.3.61,1.17,1.17,0,0,0,.73.21,1.11,1.11,0,0,0,.66-.17A.49.49,0,0,0,342.82,111.62Zm4.22-1h-2.4v-.9H347Zm1.21,2.38v-4.12h-.76V108h.76v-.34a1.88,1.88,0,0,1,.25-1,1.54,1.54,0,0,1,.68-.63,2.49,2.49,0,0,1,1.07-.21,3.27,3.27,0,0,1,.7.08c.22,0,.45.12.69.2l-.16.92a3.52,3.52,0,0,0-1.16-.22,1,1,0,0,0-.73.22.9.9,0,0,0-.23.66V108h1v.82h-1V113Zm3.92,0h-1.11V108h1.11Zm2.41,0h-1.11v-7h1.11Zm2.6-6.15V108h.88v.82h-.88v2.76a.59.59,0,0,0,.12.41.52.52,0,0,0,.4.12,1.69,1.69,0,0,0,.38,0V113a2.67,2.67,0,0,1-.73.1c-.85,0-1.28-.47-1.28-1.41v-2.8h-.81V108h.81v-1.21Zm3.9,6.24a2.31,2.31,0,0,1-1.71-.66,2.42,2.42,0,0,1-.66-1.77v-.14a2.92,2.92,0,0,1,.29-1.32,2.16,2.16,0,0,1,.8-.91,2.11,2.11,0,0,1,1.15-.33,1.92,1.92,0,0,1,1.56.65,2.71,2.71,0,0,1,.56,1.82v.45h-3.24a1.52,1.52,0,0,0,.41,1,1.22,1.22,0,0,0,.91.35,1.51,1.51,0,0,0,1.24-.61l.6.57a2.07,2.07,0,0,1-.8.69A2.51,2.51,0,0,1,361.08,113.05Zm-.13-4.24a1,1,0,0,0-.74.32,1.68,1.68,0,0,0-.36.9H362v-.09a1.34,1.34,0,0,0-.3-.84A.92.92,0,0,0,361,108.81Zm5.57.22a3.42,3.42,0,0,0-.46,0,1,1,0,0,0-1,.59V113h-1.12V108H365l0,.55a1.26,1.26,0,0,1,1.12-.65,1,1,0,0,1,.39.07Z" transform="translate(-10 -10)"/></g><rect class="cls-5" x="256.32" y="169.92" width="144" height="48.96"/><rect class="cls-6" x="256.68" y="170.28" width="143.28" height="48.24"/><g class="cls-22"><rect class="cls-5" x="257.04" y="170.64" width="142.56" height="2.88"/><text class="cls-8" transform="translate(305.35 199.44)">Succeeded</text><text class="cls-9" transform="translate(315.62 210.96)">32 sec</text></g><g class="cls-23"><path class="cls-11" d="M273.16,194h0l5.29-5.29a5,5,0,1,1-1-1.14l-4.27,4.27-1.44-1.44-1.08,1.08,2.52,2.52Z" transform="translate(-10 -10)"/></g><g class="cls-22"><text class="cls-12" transform="translate(294.73 187.92)">analysis-analiz</text><text class="cls-12" transform="translate(356.88 187.92)">e</text></g><g class="cls-24"><rect class="cls-18" x="386.64" y="179.28" width="9.36" height="9.36"/><line x1="391.32" y1="182.5" x2="393.52" y2="180.16"/><line class="cls-19" x1="391.32" y1="182.5" x2="393.52" y2="180.16"/><line x1="389.12" y1="180.16" x2="391.32" y2="182.5"/><line class="cls-19" x1="389.12" y1="180.16" x2="391.32" y2="182.5"/></g><rect class="cls-5" x="1.44" y="254.88" width="144" height="48.96"/><rect class="cls-6" x="1.8" y="255.24" width="143.28" height="48.24"/><g class="cls-25"><rect class="cls-5" x="2.16" y="255.6" width="142.56" height="2.88"/><text class="cls-8" transform="translate(50.47 284.4)">Succeeded</text><text class="cls-9" transform="translate(60.74 295.92)">23 sec</text></g><g class="cls-26"><path class="cls-11" d="M18.28,278.92h0l5.29-5.29a5,5,0,1,1-1-1.14l-4.27,4.27-1.44-1.44-1.08,1.08,2.52,2.52Z" transform="translate(-10 -10)"/></g><g class="cls-25"><text class="cls-12" transform="translate(35.27 272.88)">tr</text><text class="cls-12" transform="translate(41.53 272.88)">aining-tr</text><text class="cls-12" transform="translate(76.43 272.88)">ansform</text></g><g class="cls-27"><rect class="cls-18" x="131.76" y="264.24" width="9.36" height="9.36"/><line x1="136.44" y1="267.46" x2="138.64" y2="265.12"/><line class="cls-19" x1="136.44" y1="267.46" x2="138.64" y2="265.12"/><line x1="134.24" y1="265.12" x2="136.44" y2="267.46"/><line class="cls-19" x1="134.24" y1="265.12" x2="136.44" y2="267.46"/></g><rect class="cls-5" x="434.88" y="169.92" width="144" height="48.96"/><rect class="cls-6" x="435.24" y="170.28" width="143.28" height="48.24"/><g class="cls-28"><rect class="cls-5" x="435.6" y="170.64" width="142.56" height="2.88"/><text class="cls-8" transform="translate(483.91 199.44)">Succeeded</text><text class="cls-9" transform="translate(496.61 210.96)">0 sec</text></g><g class="cls-29"><path class="cls-11" d="M451.72,194h0l5.29-5.29a5,5,0,1,1-1-1.14l-4.27,4.27-1.44-1.44-1.08,1.08,2.52,2.52Z" transform="translate(-10 -10)"/></g><g class="cls-28"><text class="cls-12" transform="translate(475.31 187.92)">v</text><path d="M493.4,197.92a1.75,1.75,0,0,1-.13-.46,1.88,1.88,0,0,1-2.51.13,1.37,1.37,0,0,1-.48-1.05,1.42,1.42,0,0,1,.59-1.22,2.85,2.85,0,0,1,1.68-.42h.68v-.33A.87.87,0,0,0,493,194a.88.88,0,0,0-.66-.23,1,1,0,0,0-.62.19.6.6,0,0,0-.24.48h-1.11a1.24,1.24,0,0,1,.27-.76,1.81,1.81,0,0,1,.73-.56,2.68,2.68,0,0,1,1-.2,2.06,2.06,0,0,1,1.38.44,1.54,1.54,0,0,1,.53,1.23v2.23a2.58,2.58,0,0,0,.19,1.06v.08Zm-1.22-.8a1.25,1.25,0,0,0,.62-.16,1,1,0,0,0,.43-.43v-.93h-.6a1.62,1.62,0,0,0-.92.21.7.7,0,0,0-.31.61.66.66,0,0,0,.21.51A.8.8,0,0,0,492.18,197.12Zm4.51.8h-1.11v-7h1.11Zm1.21-6.23a.57.57,0,0,1,.16-.42.59.59,0,0,1,.47-.17.58.58,0,0,1,.46.17.6.6,0,0,1,0,.84.62.62,0,0,1-.46.17.63.63,0,0,1-.47-.17A.57.57,0,0,1,497.9,191.69Zm1.18,6.23H498V193h1.11Zm1-2.51a3,3,0,0,1,.53-1.83,1.68,1.68,0,0,1,1.42-.7,1.63,1.63,0,0,1,1.27.55V190.9h1.11v7h-1l-.06-.51a1.63,1.63,0,0,1-1.33.6,1.66,1.66,0,0,1-1.4-.7A3,3,0,0,1,500.08,195.41Zm1.11.1a2.06,2.06,0,0,0,.29,1.17.93.93,0,0,0,.82.43,1.06,1.06,0,0,0,1-.61v-2.11a1,1,0,0,0-1-.6,1,1,0,0,0-.83.43A2.35,2.35,0,0,0,501.19,195.51Zm7.34,2.41a1.43,1.43,0,0,1-.13-.46,1.74,1.74,0,0,1-1.3.55,1.77,1.77,0,0,1-1.22-.42,1.39,1.39,0,0,1-.47-1.05,1.42,1.42,0,0,1,.59-1.22,2.85,2.85,0,0,1,1.68-.42h.68v-.33a.87.87,0,0,0-.21-.61.9.9,0,0,0-.66-.23,1,1,0,0,0-.62.19.6.6,0,0,0-.24.48h-1.11a1.24,1.24,0,0,1,.27-.76,1.81,1.81,0,0,1,.73-.56,2.68,2.68,0,0,1,1-.2,2.08,2.08,0,0,1,1.38.44,1.54,1.54,0,0,1,.53,1.23v2.23a2.42,2.42,0,0,0,.19,1.06v.08Zm-1.23-.8a1.22,1.22,0,0,0,.62-.16,1.07,1.07,0,0,0,.44-.43v-.93h-.6a1.68,1.68,0,0,0-.93.21.73.73,0,0,0-.31.61.64.64,0,0,0,.22.51A.79.79,0,0,0,507.3,197.12Zm4.73-5.35V193h.87v.82H512v2.76a.59.59,0,0,0,.11.41.53.53,0,0,0,.4.12,1.72,1.72,0,0,0,.39,0v.86a2.78,2.78,0,0,1-.73.1c-.86,0-1.28-.47-1.28-1.41v-2.8h-.82V193h.82v-1.21Zm1.72-.08a.57.57,0,0,1,.16-.42.59.59,0,0,1,.47-.17.58.58,0,0,1,.46.17.6.6,0,0,1,0,.84.62.62,0,0,1-.46.17.63.63,0,0,1-.47-.17A.57.57,0,0,1,513.75,191.69Zm1.18,6.23h-1.11V193h1.11Zm1-2.52a2.83,2.83,0,0,1,.29-1.31,2.06,2.06,0,0,1,.81-.89,2.23,2.23,0,0,1,1.19-.32,2.18,2.18,0,0,1,1.63.65,2.55,2.55,0,0,1,.67,1.71v.26a3,3,0,0,1-.28,1.3,2.09,2.09,0,0,1-.81.9,2.29,2.29,0,0,1-1.21.31,2.12,2.12,0,0,1-1.67-.7,2.64,2.64,0,0,1-.63-1.85Zm1.11.1a2,2,0,0,0,.31,1.19,1,1,0,0,0,.88.43,1,1,0,0,0,.88-.43,2.21,2.21,0,0,0,.31-1.29,2,2,0,0,0-.32-1.19,1,1,0,0,0-.88-.44,1,1,0,0,0-.86.44A2.17,2.17,0,0,0,517,195.5ZM522.5,193l0,.57a1.75,1.75,0,0,1,1.44-.67c1,0,1.55.59,1.57,1.77v3.27h-1.11v-3.2a1,1,0,0,0-.2-.7.87.87,0,0,0-.67-.23,1.08,1.08,0,0,0-1,.61v3.52h-1.11V193Zm6.33,2.56h-2.4v-.9h2.4Zm1.21,2.38V193.8h-.76V193H530v-.34a2,2,0,0,1,.24-1A1.56,1.56,0,0,1,531,191a2.47,2.47,0,0,1,1.06-.21,3.29,3.29,0,0,1,.71.08c.22.05.45.12.69.2l-.17.92a3.42,3.42,0,0,0-1.15-.22,1,1,0,0,0-.73.22.86.86,0,0,0-.23.66V193h1v.82h-1v4.12Zm3.92,0h-1.11V193H534Zm2.41,0h-1.11v-7h1.11Zm2.6-6.15V193h.88v.82H539v2.76a.65.65,0,0,0,.11.41.55.55,0,0,0,.4.12,1.72,1.72,0,0,0,.39,0v.86a2.67,2.67,0,0,1-.73.1c-.85,0-1.28-.47-1.28-1.41v-2.8h-.81V193h.81v-1.21Zm3.9,6.24a2.31,2.31,0,0,1-1.71-.66,2.42,2.42,0,0,1-.66-1.77v-.14a2.92,2.92,0,0,1,.29-1.32,2.16,2.16,0,0,1,.8-.91,2.11,2.11,0,0,1,1.15-.33,1.92,1.92,0,0,1,1.56.65,2.71,2.71,0,0,1,.55,1.82v.45h-3.23a1.52,1.52,0,0,0,.41,1,1.21,1.21,0,0,0,.9.35,1.51,1.51,0,0,0,1.25-.61l.6.57a2.15,2.15,0,0,1-.8.69A2.51,2.51,0,0,1,542.87,198Zm-.13-4.24a1,1,0,0,0-.74.32,1.68,1.68,0,0,0-.36.9h2.12v-.09a1.4,1.4,0,0,0-.3-.84A.92.92,0,0,0,542.74,193.77Zm5.57.22a3.42,3.42,0,0,0-.46,0,1,1,0,0,0-1,.59v3.38h-1.11V193h1.06l0,.55a1.26,1.26,0,0,1,1.12-.65,1.09,1.09,0,0,1,.39.07Z" transform="translate(-10 -10)"/></g><rect class="cls-5" x="257.76" y="254.88" width="144" height="48.96"/><rect class="cls-6" x="258.12" y="255.24" width="143.28" height="48.24"/><g class="cls-30"><rect class="cls-5" x="258.48" y="255.6" width="142.56" height="2.88"/><text class="cls-8" transform="translate(306.79 284.4)">Succeeded</text><text class="cls-9" transform="translate(319.49 295.92)">6 sec</text></g><g class="cls-31"><path class="cls-11" d="M274.6,278.92h0l5.29-5.29a5,5,0,1,1-1-1.14l-4.27,4.27-1.44-1.44-1.08,1.08,2.52,2.52Z" transform="translate(-10 -10)"/></g><g class="cls-30"><text class="cls-12" transform="translate(287.1 272.88)">v</text><text class="cls-12" transform="translate(291.66 272.88)">alidation-tr</text><text class="cls-12" transform="translate(337.23 272.88)">ansform</text></g><g class="cls-32"><rect class="cls-18" x="388.08" y="264.24" width="9.36" height="9.36"/><line x1="392.76" y1="267.46" x2="394.96" y2="265.12"/><line class="cls-19" x1="392.76" y1="267.46" x2="394.96" y2="265.12"/><line x1="390.56" y1="265.12" x2="392.76" y2="267.46"/><line class="cls-19" x1="390.56" y1="265.12" x2="392.76" y2="267.46"/></g><rect class="cls-5" x="607.68" y="84.96" width="144" height="48.96"/><rect class="cls-6" x="608.04" y="85.32" width="143.28" height="48.24"/><g class="cls-33"><rect class="cls-5" x="608.4" y="85.68" width="142.56" height="2.88"/><text class="cls-8" transform="translate(656.71 114.48)">Succeeded</text><text class="cls-9" transform="translate(669.41 126)">0 sec</text></g><g class="cls-34"><path class="cls-11" d="M624.52,109h0l5.29-5.29a5,5,0,1,1-1-1.14l-4.27,4.27-1.44-1.44L622,106.48l2.52,2.52Z" transform="translate(-10 -10)"/></g><g class="cls-33"><path d="M666,106.81V108h.87v.82H666v2.76a.65.65,0,0,0,.11.41.55.55,0,0,0,.4.12,1.72,1.72,0,0,0,.39,0V113a2.73,2.73,0,0,1-.73.1c-.85,0-1.28-.47-1.28-1.41v-2.8h-.81V108h.81v-1.21Zm3.9,6.24a2.28,2.28,0,0,1-1.71-.66,2.42,2.42,0,0,1-.66-1.77v-.14a2.92,2.92,0,0,1,.29-1.32,2.14,2.14,0,0,1,2-1.24,2,2,0,0,1,1.56.65,2.71,2.71,0,0,1,.55,1.82v.45h-3.23a1.47,1.47,0,0,0,.41,1,1.21,1.21,0,0,0,.9.35,1.48,1.48,0,0,0,1.24-.61l.6.57a2,2,0,0,1-.79.69A2.51,2.51,0,0,1,669.88,113.05Zm-.13-4.24a.93.93,0,0,0-.74.32,1.68,1.68,0,0,0-.36.9h2.11v-.09a1.34,1.34,0,0,0-.29-.84A1,1,0,0,0,669.75,108.81Zm5.74,2.81a.52.52,0,0,0-.24-.46,2.68,2.68,0,0,0-.81-.27,4.44,4.44,0,0,1-1-.3,1.27,1.27,0,0,1-.83-1.17,1.33,1.33,0,0,1,.54-1.07,2.18,2.18,0,0,1,1.37-.43,2.22,2.22,0,0,1,1.43.44,1.38,1.38,0,0,1,.55,1.14h-1.11a.68.68,0,0,0-.24-.53.92.92,0,0,0-.63-.21,1,1,0,0,0-.59.16.55.55,0,0,0-.24.46.44.44,0,0,0,.22.39,2.81,2.81,0,0,0,.87.29,4.31,4.31,0,0,1,1,.34,1.5,1.5,0,0,1,.56.48,1.23,1.23,0,0,1,.18.68,1.3,1.3,0,0,1-.56,1.08,2.36,2.36,0,0,1-1.44.41,2.53,2.53,0,0,1-1.09-.22,1.84,1.84,0,0,1-.74-.6,1.41,1.41,0,0,1-.26-.83h1.08a.78.78,0,0,0,.29.61,1.19,1.19,0,0,0,.73.21,1.16,1.16,0,0,0,.67-.17A.5.5,0,0,0,675.49,111.62Zm3.46-4.81V108h.87v.82H679v2.76a.59.59,0,0,0,.11.41.53.53,0,0,0,.4.12,1.78,1.78,0,0,0,.39,0V113a2.8,2.8,0,0,1-.74.1c-.85,0-1.28-.47-1.28-1.41v-2.8H677V108h.81v-1.21Zm1.72-.08a.57.57,0,0,1,.16-.42.58.58,0,0,1,.46-.17.59.59,0,0,1,.47.17.6.6,0,0,1,0,.84.63.63,0,0,1-.47.17.62.62,0,0,1-.46-.17A.57.57,0,0,1,680.67,106.73Zm1.18,6.23h-1.11V108h1.11Zm2.24-4.94,0,.57a1.75,1.75,0,0,1,1.44-.67c1,0,1.55.59,1.57,1.77V113H686v-3.2a1,1,0,0,0-.2-.7.87.87,0,0,0-.67-.23,1.08,1.08,0,0,0-1,.61V113H683V108Zm4,2.43a2.9,2.9,0,0,1,.54-1.84,1.74,1.74,0,0,1,1.44-.69,1.65,1.65,0,0,1,1.33.59l0-.49h1v4.79a2,2,0,0,1-.61,1.53,2.28,2.28,0,0,1-1.63.57,2.63,2.63,0,0,1-1.06-.23,1.89,1.89,0,0,1-.79-.59l.52-.67a1.57,1.57,0,0,0,1.26.61,1.25,1.25,0,0,0,.88-.3,1.16,1.16,0,0,0,.32-.88v-.33a1.66,1.66,0,0,1-1.28.53,1.74,1.74,0,0,1-1.42-.69A3,3,0,0,1,688.07,110.45Zm1.1.1a2,2,0,0,0,.31,1.17,1,1,0,0,0,.84.43,1.09,1.09,0,0,0,1-.58V109.4a1.05,1.05,0,0,0-1-.57,1,1,0,0,0-.85.44A2.16,2.16,0,0,0,689.17,110.55Zm6.55,0h-2.4v-.9h2.4Zm1.21,2.38v-4.12h-.75V108h.75v-.34a2.08,2.08,0,0,1,.25-1,1.51,1.51,0,0,1,.69-.63,2.44,2.44,0,0,1,1.06-.21,3.19,3.19,0,0,1,.7.08,6.77,6.77,0,0,1,.7.2l-.17.92a3.42,3.42,0,0,0-1.15-.22,1,1,0,0,0-.74.22.9.9,0,0,0-.23.66V108h1v.82h-1V113Zm3.93,0h-1.12V108h1.12Zm2.41,0h-1.11v-7h1.11Zm2.6-6.15V108h.87v.82h-.87v2.76a.65.65,0,0,0,.11.41.55.55,0,0,0,.4.12,1.72,1.72,0,0,0,.39,0V113a2.73,2.73,0,0,1-.73.1c-.86,0-1.28-.47-1.28-1.41v-2.8h-.82V108h.82v-1.21Zm3.9,6.24a2.28,2.28,0,0,1-1.71-.66,2.42,2.42,0,0,1-.66-1.77v-.14a2.92,2.92,0,0,1,.29-1.32,2.14,2.14,0,0,1,1.95-1.24,2,2,0,0,1,1.56.65,2.71,2.71,0,0,1,.55,1.82v.45h-3.23a1.47,1.47,0,0,0,.41,1,1.21,1.21,0,0,0,.9.35,1.49,1.49,0,0,0,1.24-.61l.6.57a2,2,0,0,1-.79.69A2.51,2.51,0,0,1,709.77,113.05Zm-.14-4.24a.93.93,0,0,0-.73.32,1.68,1.68,0,0,0-.36.9h2.11v-.09a1.34,1.34,0,0,0-.29-.84A1,1,0,0,0,709.63,108.81Zm5.57.22a3.27,3.27,0,0,0-.45,0,1,1,0,0,0-1,.59V113h-1.11V108h1.06l0,.55a1.26,1.26,0,0,1,1.11-.65,1.15,1.15,0,0,1,.4.07Z" transform="translate(-10 -10)"/></g><rect class="cls-5" x="607.68" y="169.92" width="144" height="48.96"/><rect class="cls-6" x="608.04" y="170.28" width="143.28" height="48.24"/><g class="cls-35"><rect class="cls-5" x="608.4" y="170.64" width="142.56" height="2.88"/><text class="cls-8" transform="translate(656.71 199.44)">Succeeded</text><text class="cls-9" transform="translate(669.41 210.96)">0 sec</text></g><g class="cls-36"><path class="cls-11" d="M624.52,194h0l5.29-5.29a5,5,0,1,1-1-1.14l-4.27,4.27-1.44-1.44L622,191.44l2.52,2.52Z" transform="translate(-10 -10)"/></g><g class="cls-35"><text class="cls-12" transform="translate(648.27 187.92)">testing-encode</text></g><rect class="cls-5" x="607.68" y="254.88" width="144" height="48.96"/><rect class="cls-6" x="608.04" y="255.24" width="143.28" height="48.24"/><g class="cls-37"><rect class="cls-5" x="608.4" y="255.6" width="142.56" height="2.88"/><text class="cls-8" transform="translate(656.71 284.4)">Succeeded</text><text class="cls-9" transform="translate(669.41 295.92)">5 sec</text></g><g class="cls-38"><path class="cls-11" d="M624.52,278.92h0l5.29-5.29a5,5,0,1,1-1-1.14l-4.27,4.27-1.44-1.44L622,276.4l2.52,2.52Z" transform="translate(-10 -10)"/></g><g class="cls-37"><text class="cls-12" transform="translate(635.85 272.88)">testing-write-r</text><text class="cls-12" transform="translate(694.95 272.88)">ecor</text><text class="cls-12" transform="translate(713.4 272.88)">ds</text></g><g class="cls-39"><rect class="cls-18" x="738" y="264.24" width="9.36" height="9.36"/><line x1="742.68" y1="267.46" x2="744.88" y2="265.12"/><line class="cls-19" x1="742.68" y1="267.46" x2="744.88" y2="265.12"/><line x1="740.48" y1="265.12" x2="742.68" y2="267.46"/><line class="cls-19" x1="740.48" y1="265.12" x2="742.68" y2="267.46"/></g><rect class="cls-5" x="1.44" y="339.84" width="144" height="48.96"/><rect class="cls-6" x="1.8" y="340.2" width="143.28" height="48.24"/><g class="cls-40"><rect class="cls-5" x="2.16" y="340.56" width="142.56" height="2.88"/><text class="cls-8" transform="translate(50.47 369.36)">Succeeded</text><text class="cls-9" transform="translate(63.17 380.88)">1 sec</text></g><g class="cls-41"><path class="cls-11" d="M18.28,363.88h0l5.29-5.29a5,5,0,1,1-1-1.14l-4.27,4.27-1.44-1.44-1.08,1.08,2.52,2.52Z" transform="translate(-10 -10)"/></g><g class="cls-40"><text class="cls-12" transform="translate(40.61 357.84)">tr</text><text class="cls-12" transform="translate(46.88 357.84)">aining-encode</text></g><rect class="cls-5" x="1.44" y="424.8" width="144" height="48.96"/><rect class="cls-6" x="1.8" y="425.16" width="143.28" height="48.24"/><g class="cls-42"><rect class="cls-5" x="2.16" y="425.52" width="142.56" height="2.88"/><text class="cls-8" transform="translate(50.47 454.32)">Succeeded</text><text class="cls-9" transform="translate(63.17 465.84)">9 sec</text></g><g class="cls-43"><path class="cls-11" d="M18.28,448.84h0l5.29-5.29a5,5,0,1,1-1-1.14l-4.27,4.27-1.44-1.44-1.08,1.08,2.52,2.52Z" transform="translate(-10 -10)"/></g><g class="cls-42"><text class="cls-12" transform="translate(28.18 442.8)">tr</text><text class="cls-12" transform="translate(34.45 442.8)">aining-write-r</text><text class="cls-12" transform="translate(90.13 442.8)">ecor</text><text class="cls-12" transform="translate(108.58 442.8)">ds</text></g><g class="cls-44"><rect class="cls-18" x="131.76" y="434.16" width="9.36" height="9.36"/><line x1="136.44" y1="437.38" x2="138.64" y2="435.04"/><line class="cls-19" x1="136.44" y1="437.38" x2="138.64" y2="435.04"/><line x1="134.24" y1="435.04" x2="136.44" y2="437.38"/><line class="cls-19" x1="134.24" y1="435.04" x2="136.44" y2="437.38"/></g><rect class="cls-5" x="257.76" y="339.84" width="144" height="48.96"/><rect class="cls-6" x="258.12" y="340.2" width="143.28" height="48.24"/><g class="cls-45"><rect class="cls-5" x="258.48" y="340.56" width="142.56" height="2.88"/><text class="cls-8" transform="translate(306.79 369.36)">Succeeded</text><text class="cls-9" transform="translate(319.49 380.88)">0 sec</text></g><g class="cls-46"><path class="cls-11" d="M274.6,363.88h0l5.29-5.29a5,5,0,1,1-1-1.14l-4.27,4.27-1.44-1.44-1.08,1.08,2.52,2.52Z" transform="translate(-10 -10)"/></g><g class="cls-45"><text class="cls-12" transform="translate(292.44 357.84)">v</text><text class="cls-12" transform="translate(297 357.84)">alidation-encode</text></g><rect class="cls-5" x="257.76" y="424.8" width="144" height="48.96"/><rect class="cls-6" x="258.12" y="425.16" width="143.28" height="48.24"/><g class="cls-47"><rect class="cls-5" x="258.48" y="425.52" width="142.56" height="2.88"/><text class="cls-8" transform="translate(306.79 454.32)">Succeeded</text><text class="cls-9" transform="translate(319.49 465.84)">9 sec</text></g><g class="cls-48"><path class="cls-11" d="M274.6,448.84h0l5.29-5.29a5,5,0,1,1-1-1.14l-4.27,4.27-1.44-1.44-1.08,1.08,2.52,2.52Z" transform="translate(-10 -10)"/></g><g class="cls-47"><text class="cls-12" transform="translate(280.02 442.8)">v</text><text class="cls-12" transform="translate(284.58 442.8)">alidation-write-r</text><text class="cls-12" transform="translate(350.93 442.8)">ecor</text><text class="cls-12" transform="translate(369.39 442.8)">ds</text></g><g class="cls-49"><rect class="cls-18" x="388.08" y="434.16" width="9.36" height="9.36"/><line x1="392.76" y1="437.38" x2="394.96" y2="435.04"/><line class="cls-19" x1="392.76" y1="437.38" x2="394.96" y2="435.04"/><line x1="390.56" y1="435.04" x2="392.76" y2="437.38"/><line class="cls-19" x1="390.56" y1="435.04" x2="392.76" y2="437.38"/></g><rect class="cls-5" x="430.56" y="254.88" width="144" height="48.96"/><rect class="cls-6" x="430.92" y="255.24" width="143.28" height="48.24"/><g class="cls-50"><rect class="cls-5" x="431.28" y="255.6" width="142.56" height="2.88"/><text class="cls-8" transform="translate(479.59 284.4)">Succeeded</text><text class="cls-9" transform="translate(492.29 295.92)">4 sec</text></g><g class="cls-51"><path class="cls-11" d="M447.4,278.92h0l5.29-5.29a5,5,0,1,1-1-1.14l-4.27,4.27L446,275.32l-1.08,1.08,2.52,2.52Z" transform="translate(-10 -10)"/></g><g class="cls-50"><text class="cls-12" transform="translate(451.22 272.88)">analysis-write-tr</text><text class="cls-12" transform="translate(518.73 272.88)">ansform</text></g><g class="cls-52"><rect class="cls-18" x="560.88" y="264.24" width="9.36" height="9.36"/><line x1="565.56" y1="267.46" x2="567.76" y2="265.12"/><line class="cls-19" x1="565.56" y1="267.46" x2="567.76" y2="265.12"/><line x1="563.36" y1="265.12" x2="565.56" y2="267.46"/><line class="cls-19" x1="563.36" y1="265.12" x2="565.56" y2="267.46"/></g></svg>